<?xml version="1.0" encoding="UTF-8" standalone="no"?><!DOCTYPE svg PUBLIC "-//W3C//DTD SVG 1.1//EN" "http://www.w3.org/Graphics/SVG/1.1/DTD/svg11.dtd"><svg width="100%" height="100%" viewBox="0 0 22 22" version="1.1" xmlns="http://www.w3.org/2000/svg" xmlns:xlink="http://www.w3.org/1999/xlink" xml:space="preserve" xmlns:serif="http://www.serif.com/" style="fill-rule:evenodd;clip-rule:evenodd;stroke-linejoin:round;stroke-miterlimit:2;"><g><path d="M10.372,7.328l0,-1.445l1.256,0l0,1.445l-1.256,0Zm0,8.789l0,-7.414l1.256,0l0,7.414l-1.256,0Z" style="fill:#fff;fill-rule:nonzero;"/></g><path d="M11,1.833c5.059,-0 9.167,4.108 9.167,9.167c0,5.059 -4.108,9.167 -9.167,9.167c-5.059,0 -9.167,-4.108 -9.167,-9.167c-0,-5.059 4.108,-9.167 9.167,-9.167Zm-0,1.361c-4.309,-0 -7.806,3.497 -7.806,7.806c-0,4.309 3.497,7.806 7.806,7.806c4.309,0 7.806,-3.497 7.806,-7.806c0,-4.309 -3.497,-7.806 -7.806,-7.806Z" style="fill:#fff;"/></svg>
