<?xml version="1.0" encoding="UTF-8" standalone="no"?><!DOCTYPE svg PUBLIC "-//W3C//DTD SVG 1.1//EN" "http://www.w3.org/Graphics/SVG/1.1/DTD/svg11.dtd"><svg width="100%" height="100%" viewBox="0 0 22 22" version="1.1" xmlns="http://www.w3.org/2000/svg" xmlns:xlink="http://www.w3.org/1999/xlink" xml:space="preserve" xmlns:serif="http://www.serif.com/" style="fill-rule:evenodd;clip-rule:evenodd;stroke-linejoin:round;stroke-miterlimit:2;"><g><path d="M11,1.833c-5.06,0 -9.167,4.107 -9.167,9.167c0,5.06 4.107,9.167 9.167,9.167c5.06,-0 9.167,-4.107 9.167,-9.167c-0,-5.06 -4.107,-9.167 -9.167,-9.167Zm0,16.5c-4.042,0 -7.333,-3.29 -7.333,-7.333c-0,-4.042 3.291,-7.333 7.333,-7.333c4.043,-0 7.333,3.291 7.333,7.333c0,4.043 -3.29,7.333 -7.333,7.333Z" style="fill:#fffefe;fill-rule:nonzero;"/><path d="M10.372,7.328l-0,-1.445l1.256,-0l0,1.445l-1.256,-0Zm-0,8.789l-0,-7.414l1.256,0l0,7.414l-1.256,0Z" style="fill:#fff;fill-rule:nonzero;"/></g></svg>