<svg width="16" height="16" viewBox="0 0 16 16" fill="none" xmlns="http://www.w3.org/2000/svg">
<path fill-rule="evenodd" clip-rule="evenodd" d="M15.2118 7.13502C14.9941 7.6946 14.9941 8.31544 15.2118 8.87502L15.3393 9.24252C15.8039 10.4559 15.2413 11.821 14.0564 12.355L13.7188 12.505C13.165 12.7436 12.717 13.1755 12.4584 13.72L12.3083 14.0575C11.7742 15.242 10.4087 15.8045 9.19484 15.34L8.84973 15.2125C8.28996 14.9949 7.66893 14.9949 7.10916 15.2125L6.76405 15.34C5.55023 15.8045 4.1847 15.242 3.65054 14.0575L3.5005 13.72C3.26183 13.1664 2.82983 12.7186 2.2851 12.46L1.94749 12.31C0.762636 11.776 0.199972 10.4109 0.664578 9.19752L0.79212 8.85252C1.00984 8.29294 1.00984 7.6721 0.79212 7.11252L0.664578 6.76752C0.199972 5.5541 0.762636 4.18901 1.94749 3.65502L2.2851 3.50502C2.82199 3.25756 3.25296 2.82674 3.5005 2.29002L3.67305 1.95252C4.2078 0.756157 5.58886 0.191362 6.80907 0.670022L7.15418 0.797522C7.71394 1.01517 8.33498 1.01517 8.89474 0.797522L9.23985 0.670022C10.4537 0.205566 11.8192 0.768048 12.3534 1.95252L12.5034 2.29002C12.7509 2.82674 13.1819 3.25756 13.7188 3.50502L14.0564 3.67752C15.2413 4.21151 15.8039 5.5766 15.3393 6.79002L15.2118 7.13502ZM7.05061 10.5175L11.267 6.30247C11.4051 6.15761 11.4051 5.92983 11.267 5.78497L10.8694 5.38747C10.7235 5.24454 10.49 5.24454 10.3442 5.38747L6.78803 8.94247L5.66267 7.82497C5.59459 7.75246 5.49955 7.71133 5.40008 7.71133C5.30061 7.71133 5.20557 7.75246 5.1375 7.82497L4.73987 8.22247C4.66885 8.29288 4.62891 8.38873 4.62891 8.48872C4.62891 8.58871 4.66885 8.68456 4.73987 8.75497L6.52544 10.5175C6.59352 10.59 6.68856 10.6311 6.78803 10.6311C6.8875 10.6311 6.98254 10.59 7.05061 10.5175Z" fill="#2082E2"/>
</svg>
