<?xml version="1.0" encoding="UTF-8" standalone="no"?><!DOCTYPE svg PUBLIC "-//W3C//DTD SVG 1.1//EN" "http://www.w3.org/Graphics/SVG/1.1/DTD/svg11.dtd"><svg width="100%" height="100%" viewBox="0 0 925 235" version="1.1" xmlns="http://www.w3.org/2000/svg" xmlns:xlink="http://www.w3.org/1999/xlink" xml:space="preserve" xmlns:serif="http://www.serif.com/" style="fill-rule:evenodd;clip-rule:evenodd;stroke-linejoin:round;stroke-miterlimit:2;"><g><path d="M152.654,16.611l-87.09,50.283l-0,100.566l87.09,50.282l87.09,-50.282l-0,-100.566l-87.09,-50.283Zm50.194,129.537l-50.178,28.971l-50.179,-28.971l0,-57.943l50.179,-28.97l50.178,28.97l-0,57.943Z" style="fill:#0847f7;fill-rule:nonzero;"/><path d="M335.298,167.564c-8.649,0 -16.396,-1.979 -23.219,-5.962c-6.83,-3.974 -12.221,-9.71 -16.17,-17.224c-3.951,-7.515 -5.922,-16.557 -5.922,-27.137c-0,-10.579 1.995,-19.767 5.961,-27.306c3.975,-7.53 9.382,-13.274 16.236,-17.225c6.847,-3.95 14.554,-5.921 23.122,-5.921c5.567,0 10.764,0.797 15.543,2.374c4.787,1.576 9.043,3.869 12.776,6.878c3.733,3.009 6.766,6.686 9.124,11.03c2.349,4.345 3.87,9.284 4.578,14.828l-19.43,-0c-0.443,-2.808 -1.295,-5.318 -2.566,-7.547c-1.28,-2.212 -2.889,-4.103 -4.835,-5.664c-1.956,-1.56 -4.176,-2.743 -6.646,-3.556c-2.486,-0.812 -5.189,-1.215 -8.133,-1.215c-5.182,0 -9.743,1.296 -13.701,3.886c-3.951,2.591 -7.041,6.364 -9.253,11.328c-2.22,4.956 -3.331,11.006 -3.331,18.11c0,7.104 1.118,13.275 3.355,18.215c2.245,4.939 5.318,8.665 9.253,11.19c3.934,2.526 8.471,3.79 13.596,3.79c2.856,-0 5.511,-0.387 7.964,-1.159c2.454,-0.764 4.667,-1.891 6.622,-3.363c1.947,-1.464 3.588,-3.266 4.907,-5.398c1.32,-2.132 2.245,-4.578 2.768,-7.337l19.43,-0c-0.572,4.602 -1.94,8.978 -4.112,13.105c-2.172,4.12 -5.068,7.78 -8.697,10.958c-3.62,3.186 -7.884,5.688 -12.775,7.547c-4.9,1.842 -10.379,2.767 -16.429,2.767l0,0.024l-0.016,-0.016Z" style="fill:#0847f7;fill-rule:nonzero;"/><path d="M406.564,123.396l-0,42.809l-18.835,-0l0,-98.136l18.311,-0l0,37.338l0.925,0c1.706,-4.256 4.394,-7.619 8.038,-10.081c3.636,-2.454 8.278,-3.693 13.894,-3.693c5.093,0 9.558,1.094 13.363,3.291c3.821,2.196 6.79,5.358 8.89,9.485c2.108,4.119 3.154,9.115 3.154,14.956l0,46.824l-18.906,-0l-0,-43.662c-0,-4.747 -1.208,-8.44 -3.621,-11.103c-2.413,-2.654 -5.825,-3.982 -10.21,-3.982c-2.944,-0 -5.534,0.636 -7.771,1.915c-2.244,1.279 -4.006,3.089 -5.302,5.431c-1.295,2.356 -1.939,5.205 -1.939,8.6l0,0.015l0.009,-0.007Z" style="fill:#0847f7;fill-rule:nonzero;"/><path d="M487.787,167.661c-4.699,0 -8.899,-0.836 -12.607,-2.502c-3.709,-1.674 -6.63,-4.143 -8.762,-7.41c-2.132,-3.266 -3.193,-7.321 -3.193,-12.148c-0,-4.12 0.756,-7.555 2.277,-10.282c1.52,-2.727 3.579,-4.923 6.194,-6.613c2.615,-1.689 5.568,-2.969 8.89,-3.822c3.315,-0.852 6.798,-1.456 10.435,-1.81c4.304,-0.442 7.772,-0.845 10.41,-1.215c2.639,-0.369 4.554,-0.965 5.761,-1.778c1.206,-0.813 1.81,-2.011 1.81,-3.588l-0,-0.33c-0,-3.299 -1.014,-5.856 -3.025,-7.675c-2.019,-1.819 -4.9,-2.735 -8.633,-2.735c-3.95,-0 -7.087,0.861 -9.421,2.606c-2.325,1.73 -3.877,3.83 -4.674,6.284l-17.523,-1.915c1.095,-4.473 3.09,-8.287 5.962,-11.424c2.872,-3.138 6.485,-5.535 10.829,-7.185c4.345,-1.649 9.285,-2.478 14.819,-2.478c3.822,0 7.547,0.451 11.167,1.352c3.621,0.893 6.887,2.325 9.816,4.288c2.912,1.955 5.253,4.538 6.975,7.74c1.729,3.21 2.606,7.111 2.606,11.729l0,49.455l-18.038,-0l0,-10.21l-0.522,0c-1.15,2.189 -2.671,4.176 -4.61,5.938c-1.931,1.761 -4.304,3.145 -7.112,4.183c-2.807,1.038 -6.082,1.553 -9.815,1.553l-0.024,0l0.008,-0.008Zm5.124,-13.435c3.25,-0 6.083,-0.644 8.496,-1.939c2.414,-1.296 4.304,-3.026 5.664,-5.198c1.36,-2.172 2.044,-4.578 2.044,-7.208l-0,-8.238c-0.612,0.442 -1.521,0.836 -2.696,1.19c-1.19,0.354 -2.526,0.675 -4.022,0.958c-1.489,0.281 -2.969,0.53 -4.417,0.756c-1.448,0.217 -2.744,0.394 -3.886,0.523c-2.502,0.354 -4.707,0.925 -6.621,1.705c-1.915,0.796 -3.42,1.867 -4.514,3.226c-1.093,1.36 -1.649,3.073 -1.649,5.141c0,2.985 1.086,5.245 3.258,6.79c2.173,1.537 4.948,2.301 8.328,2.301l0.008,0l0.007,-0.007Z" style="fill:#0847f7;fill-rule:nonzero;"/><rect x="540.275" y="92.582" width="18.834" height="73.63" style="fill:#0847f7;fill-rule:nonzero;"/><path d="M590.331,123.396l0,42.809l-18.834,-0l0,-73.638l18.504,-0l-0,12.84l0.797,0c1.665,-4.216 4.312,-7.563 7.932,-10.049c3.621,-2.486 8.174,-3.717 13.669,-3.717c5.093,0 9.542,1.094 13.331,3.291c3.798,2.188 6.742,5.366 8.834,9.509c2.084,4.152 3.129,9.124 3.129,14.916l0,46.824l-18.834,-0l0,-43.662c0,-4.698 -1.214,-8.391 -3.652,-11.062c-2.429,-2.671 -5.784,-4.023 -10.049,-4.023c-2.896,0 -5.463,0.636 -7.675,1.915c-2.22,1.279 -3.958,3.09 -5.237,5.431c-1.28,2.357 -1.907,5.205 -1.907,8.599l-0,0.017l-0.008,-0Z" style="fill:#0847f7;fill-rule:nonzero;"/><rect x="650.063" y="63.241" width="18.834" height="102.971" style="fill:#0847f7;fill-rule:nonzero;"/><rect x="681.271" y="92.582" width="18.834" height="73.63" style="fill:#0847f7;fill-rule:nonzero;"/><path d="M731.321,123.379l-0,42.826l-18.835,-0l0,-73.638l18.505,-0l0,12.84l0.796,0c1.665,-4.216 4.312,-7.563 7.933,-10.049c3.62,-2.486 8.174,-3.717 13.669,-3.717c5.092,0 9.541,1.094 13.339,3.291c3.797,2.188 6.742,5.366 8.825,9.509c2.084,4.152 3.131,9.124 3.131,14.916l-0,46.824l-18.835,-0l0,-43.662c0,-4.698 -1.215,-8.391 -3.652,-11.062c-2.43,-2.671 -5.785,-4.023 -10.049,-4.023c-2.896,0 -5.462,0.636 -7.675,1.915c-2.221,1.279 -3.958,3.09 -5.238,5.431c-1.278,2.357 -1.914,5.205 -1.914,8.599Z" style="fill:#0847f7;fill-rule:nonzero;"/><path d="M837.107,166.213l22.334,-0l-29.405,-41.747l27.885,-31.892l-21.859,0l-24.973,28.786l-1.174,-0l-0,-53.291l-18.842,-0l0,98.144l18.842,-0l-0,-24.04l5.905,-6.548l21.287,30.58l0,0.008Z" style="fill:#0847f7;fill-rule:nonzero;"/><rect x="540.423" y="63.241" width="18.834" height="18.834" style="fill:#0847f7;fill-rule:nonzero;"/><rect x="681.436" y="63.241" width="18.833" height="18.834" style="fill:#0847f7;fill-rule:nonzero;"/></g></svg>