<?xml version="1.0" encoding="UTF-8" standalone="no"?><!DOCTYPE svg PUBLIC "-//W3C//DTD SVG 1.1//EN" "http://www.w3.org/Graphics/SVG/1.1/DTD/svg11.dtd"><svg width="100%" height="100%" viewBox="0 0 2500 2500" version="1.1" xmlns="http://www.w3.org/2000/svg" xmlns:xlink="http://www.w3.org/1999/xlink" xml:space="preserve" xmlns:serif="http://www.serif.com/" style="fill-rule:evenodd;clip-rule:evenodd;stroke-linejoin:round;stroke-miterlimit:2;"><g id="Layer_x0020_1"><path d="M1250,605.383c332.847,0 602.617,269.825 602.617,602.617c-0,332.847 -269.77,602.617 -602.617,602.617c-332.792,-0 -602.617,-269.798 -602.617,-602.617c0,-332.792 269.825,-602.617 602.617,-602.617Z" style="fill:#f5ac37;fill-rule:nonzero;"/><path d="M1047.73,1250.55l453.467,0c4.881,0 7.187,0 7.539,-6.4c1.871,-23.294 1.871,-46.724 0,-70.046c0,-4.528 -2.251,-6.399 -7.159,-6.399l-455.718,-0c-5.641,-0 -7.16,1.871 -7.16,7.159l0,67.036c0,8.65 0,8.65 9.031,8.65Zm435.434,-161.189c0.651,-1.709 0.651,-3.58 -0,-5.261c-3.824,-8.325 -8.353,-16.271 -13.614,-23.729c-7.918,-12.745 -17.247,-24.487 -27.877,-35.036c-5.017,-6.373 -10.82,-12.095 -17.328,-16.949c-32.596,-27.741 -71.348,-47.375 -113.001,-57.246c-21.017,-4.718 -42.494,-6.969 -64.026,-6.779l-202.246,-0c-5.64,-0 -6.4,2.25 -6.4,7.159l0,133.692c0,5.64 0,7.159 7.159,7.159l434.621,-0c-0,-0 3.769,-0.76 4.529,-3.01l-1.844,-0l0.027,-0Zm-0,239.533c-6.4,-0.705 -12.854,-0.705 -19.254,0l-417.672,0c-5.64,0 -7.539,0 -7.539,7.539l0,130.709c0,6.02 0,7.539 7.539,7.539l192.836,-0c9.221,0.705 18.441,0.054 27.471,-1.872c27.986,-2.006 55.511,-8.081 81.761,-18.087c9.545,-3.309 18.765,-7.62 27.47,-12.8l2.631,0c45.206,-23.511 81.923,-60.446 105.082,-105.787c0,-0 2.631,-5.695 -0.325,-7.187l-0,-0.054Zm-520.151,213.555l-0,-208.267c-0,-4.908 -0,-5.64 -6.02,-5.64l-81.734,-0c-4.529,-0 -6.4,-0 -6.4,-6.021l0,-71.564l87.374,-0c4.882,-0 6.78,-0 6.78,-6.4l-0,-70.805c-0,-4.529 -0,-5.641 -6.02,-5.641l-81.734,0c-4.529,0 -6.4,0 -6.4,-6.02l0,-66.276c0,-4.149 0,-5.261 6.02,-5.261l80.975,-0c5.64,-0 7.159,-0 7.159,-7.159l-0,-203.006c-0,-6.02 -0,-7.539 7.539,-7.539l282.461,0c20.501,0.814 40.867,3.065 61.016,6.78c41.517,7.674 81.408,22.508 117.882,43.687c24.189,14.237 46.453,31.43 66.276,51.226c14.915,15.484 28.366,32.243 40.298,50.087c11.85,18.088 21.694,37.423 29.423,57.626c0.949,5.261 5.993,8.813 11.254,7.918l67.415,0c8.651,0 8.651,0 9.03,8.298l0,61.775c0,6.02 -2.251,7.539 -8.298,7.539l-51.985,-0c-5.261,-0 -6.78,-0 -6.4,6.779c2.061,22.942 2.061,45.966 0,68.907c0,6.4 0,7.16 7.186,7.16l59.47,-0c2.631,3.389 0,6.779 0,10.196c0.38,4.366 0.38,8.786 0,13.152l0,45.586c0,6.399 -1.871,8.298 -7.539,8.298l-71.184,-0c-4.963,-0.949 -9.79,2.223 -10.929,7.159c-16.949,44.067 -44.067,83.578 -79.103,115.251c-12.8,11.526 -26.251,22.373 -40.298,32.379c-15.077,8.678 -29.748,17.708 -45.205,24.868c-28.447,12.799 -58.277,22.236 -88.893,28.229c-29.071,5.207 -58.548,7.566 -88.134,7.16l-261.39,-0l-0,-0.38l0.108,-0.081Z" style="fill:#fefefd;fill-rule:nonzero;"/></g></svg>