<svg width="32px" height="32px" viewBox="0 0 32 32" version="1.1" xmlns="http://www.w3.org/2000/svg" xmlns:xlink="http://www.w3.org/1999/xlink" xml:space="preserve" xmlns:serif="http://www.serif.com/" style="fill-rule:evenodd;clip-rule:evenodd;stroke-linejoin:round;stroke-miterlimit:2;"><g><g><path d="M14.235,-1.43c8.911,-0.515 16.864,5.542 18.734,14.268c0.51,2.395 0.53,4.873 0.061,7.278c-1.169,5.934 -5.217,10.889 -10.796,13.222c-3.801,1.597 -8.149,1.819 -12.099,0.644c-5.414,-1.612 -9.772,-5.655 -11.78,-10.935c-1.443,-3.786 -1.556,-8.056 -0.32,-11.914c2.277,-7.139 8.721,-12.136 16.2,-12.563" style="fill:none;fill-rule:nonzero;"/></g><g><path d="M4.144,15.321c0.072,0.329 0.114,0.664 0.186,0.999c0.046,0.201 0.108,0.154 0.211,0.067c0.201,-0.165 0.391,-0.345 0.613,-0.479c0.062,0.01 0.098,0.062 0.129,0.108c0.587,0.767 1.365,1.236 2.287,1.489c0.422,0.118 0.86,0.195 1.298,0.242c-0.139,-0.155 -0.253,-0.325 -0.34,-0.515c-0.15,-0.33 -0.098,-0.624 0.154,-0.886c0.304,-0.32 0.701,-0.454 1.108,-0.557c0.85,-0.221 1.715,-0.242 2.585,-0.18c0.701,0.046 1.391,0.165 2.071,0.355c0.567,0.16 1.118,0.346 1.617,0.665c0.073,0.057 0.119,0.134 0.186,0.19c0.644,0.691 1.02,1.505 1.045,2.447c0.016,0.649 -0.164,1.272 -0.489,1.844c-0.587,1.03 -1.447,1.782 -2.472,2.354c-1.041,0.582 -2.189,0.943 -3.379,1.066c-2.122,0.232 -4.095,-0.231 -5.903,-1.359c-1.504,-0.938 -2.663,-2.221 -3.606,-3.704c-0.438,-0.706 -0.824,-1.442 -1.159,-2.205c-0.041,-0.092 -0.051,-0.195 -0.092,-0.273c0.025,0.093 0.077,0.191 -0.021,0.289c-0.031,-0.386 0.005,-0.768 0.026,-1.149c0.051,-1.056 0.216,-2.101 0.489,-3.116c1.241,-4.589 4.569,-8.324 8.988,-10.085c1.329,-0.531 2.725,-0.861 4.147,-0.989c2.246,-0.206 4.419,0.087 6.541,0.839c-0.324,0.613 -2.163,2.251 -3.595,3.204c-0.041,-0.412 -0.134,-0.819 -0.278,-1.21c-0.005,-0.103 0.088,-0.134 0.144,-0.186c0.299,-0.257 0.598,-0.51 0.896,-0.762c0.031,-0.026 0.062,-0.052 0.088,-0.077c0.036,-0.037 0.093,-0.067 0.077,-0.124c-0.01,-0.057 -0.077,-0.057 -0.129,-0.067c-0.139,-0.031 -0.278,-0.046 -0.422,-0.052c-0.196,-0.02 -0.391,-0.067 -0.587,-0.072c-0.155,-0.01 -0.304,-0.046 -0.453,-0.036c-0.078,0 -0.155,-0.005 -0.232,-0.015c-0.129,-0.041 -0.263,-0.021 -0.392,-0.021c-0.077,0 -0.154,-0.005 -0.237,0c-0.226,0.01 -0.448,-0.026 -0.674,0.016c-0.057,0.01 -0.109,0.015 -0.165,0.015c-0.067,0 -0.129,0.005 -0.196,0c-0.082,-0.01 -0.17,0 -0.252,0.026c-0.237,0.02 -0.474,0.041 -0.706,0.082c-0.283,0.062 -0.572,0.072 -0.85,0.144c-0.257,0.067 -0.52,0.104 -0.773,0.191c-0.334,0.093 -0.669,0.196 -0.999,0.309c-0.479,0.191 -0.968,0.366 -1.427,0.613c-1.035,0.505 -2.003,1.144 -2.869,1.901c-0.803,0.695 -1.524,1.478 -2.148,2.338c-0.309,0.433 -0.597,0.881 -0.849,1.35c-0.165,0.304 -0.32,0.613 -0.464,0.927c-0.103,0.242 -0.227,0.479 -0.309,0.731c-0.103,0.253 -0.186,0.51 -0.268,0.773c-0.098,0.263 -0.154,0.536 -0.227,0.798c-0.03,0.103 -0.051,0.212 -0.077,0.32c-0.031,0.129 -0.051,0.257 -0.077,0.386c-0.041,0.216 -0.077,0.438 -0.108,0.659c-0.041,0.227 -0.067,0.454 -0.083,0.685c-0.036,0.15 -0.01,0.31 -0.036,0.464c-0.041,0.191 -0.015,0.386 -0.025,0.577c-0.006,0.134 -0.011,0.268 -0.006,0.402c0,0.056 -0.025,0.134 0.031,0.159c0.067,0.031 0.114,-0.041 0.165,-0.077c0.165,-0.134 0.325,-0.273 0.484,-0.412c0.541,-0.464 1.087,-0.922 1.628,-1.386c0.046,-0.03 0.098,-0.133 0.18,-0.03Z" style="fill:#4189c9;fill-rule:nonzero;"/><path d="M16.058,16.67c-0.638,-0.381 -1.334,-0.597 -2.05,-0.767c-0.937,-0.222 -1.906,-0.315 -2.869,-0.263c-0.68,0.036 -1.355,0.129 -1.983,0.427c-0.077,0.037 -0.149,0.078 -0.216,0.124c-0.51,0.34 -0.587,0.793 -0.217,1.283c0.078,0.103 0.16,0.195 0.263,0.319c-0.33,-0 -0.623,-0.062 -0.912,-0.118c-0.777,-0.155 -1.509,-0.423 -2.137,-0.928c-0.304,-0.242 -0.577,-0.51 -0.778,-0.85c0.082,-0.133 0.221,-0.195 0.35,-0.273c0.247,-0.103 0.474,-0.252 0.721,-0.365c1.097,-0.505 2.272,-0.814 3.472,-0.927c0.479,-0.047 0.958,-0.093 1.442,-0.073c1.422,0.057 2.833,0.304 4.188,0.732c0.35,0.108 0.695,0.232 1.061,0.35c0,-0.103 -0.057,-0.165 -0.098,-0.232c-0.144,-0.247 -0.314,-0.484 -0.499,-0.705c-0.067,-0.083 -0.165,-0.15 -0.16,-0.273c0.19,0.046 0.386,0.087 0.577,0.134c0.051,0.01 0.113,0.041 0.144,-0c0.046,-0.057 -0.021,-0.103 -0.051,-0.145c-0.284,-0.422 -0.634,-0.783 -1.015,-1.117c0.201,-0.119 0.407,-0.021 0.602,0.005c2.004,0.257 3.828,0.968 5.419,2.215c2.107,1.653 3.467,3.786 4.044,6.413c0.185,0.875 0.242,1.777 0.175,2.668c-0.114,1.55 -0.603,2.982 -1.52,4.254c-0.062,0.083 -0.144,0.15 -0.185,0.248c-0.206,0.309 -0.515,0.52 -0.793,0.746c-1.52,1.237 -3.297,1.881 -5.208,2.179c-1.489,0.237 -3.003,0.263 -4.497,0.078c-2.354,-0.289 -4.605,-1.139 -6.562,-2.478c-0.479,-0.325 -0.948,-0.659 -1.365,-1.061c-0.015,-0.01 -0.015,-0.031 -0.005,-0.046l0.005,-0.006c0.088,-0.036 0.144,0.031 0.206,0.073c0.999,0.752 2.138,1.303 3.348,1.627c0.407,0.103 0.814,0.186 1.231,0.247c0.093,0.036 0.196,0.016 0.289,0.036c0.02,0 0.041,0.006 0.056,0.011c0.938,0.113 1.875,0.046 2.802,-0.119c2.035,-0.36 3.848,-1.21 5.393,-2.585c1.056,-0.933 1.891,-2.035 2.334,-3.395c0.443,-1.36 0.381,-2.683 -0.242,-3.992c-0.129,0.587 -0.433,1.072 -0.819,1.515c-0.387,0.432 -0.84,0.803 -1.345,1.092c-0.056,0.036 -0.123,0.097 -0.19,0.046c-0.057,-0.046 -0.026,-0.124 -0.005,-0.18c0.123,-0.407 0.206,-0.825 0.252,-1.247c0.18,-1.777 -0.505,-3.163 -1.921,-4.208c-0.237,-0.175 -0.479,-0.33 -0.732,-0.469Z" style="fill:#262f71;fill-rule:nonzero;"/><path d="M10.186,30.201c-0.52,-0.051 -1.035,-0.159 -1.54,-0.314c-0.948,-0.288 -1.844,-0.705 -2.673,-1.251c-0.196,-0.129 -0.366,-0.304 -0.577,-0.407c-0.124,-0.016 -0.175,-0.139 -0.273,-0.191c-2.081,-1.849 -3.503,-4.121 -4.317,-6.773c-0.396,-1.288 -0.612,-2.627 -0.633,-3.977c0.005,-0.103 0.01,-0.201 0.021,-0.36c0.103,0.226 0.18,0.401 0.262,0.582c0.747,1.643 1.705,3.137 3.024,4.383c1.401,1.324 3.034,2.21 4.955,2.519c2.251,0.366 4.358,-0.026 6.294,-1.241c0.969,-0.608 1.757,-1.386 2.215,-2.452c0.551,-1.293 0.345,-2.493 -0.499,-3.601c-0.073,-0.098 -0.155,-0.19 -0.227,-0.283c0.098,-0.088 0.154,0.015 0.211,0.062c0.5,0.417 0.896,0.942 1.164,1.54c0.258,0.572 0.397,1.185 0.402,1.813c0.01,0.639 -0.134,1.272 -0.412,1.849c0.062,0 0.118,-0.02 0.165,-0.062c0.268,-0.154 0.52,-0.334 0.757,-0.535c0.072,-0.062 0.139,-0.16 0.257,-0.145c-0.061,0.485 -0.169,0.964 -0.314,1.432c0.309,-0.175 0.608,-0.371 0.891,-0.592c0.222,-0.175 0.402,-0.391 0.624,-0.572c0.092,0.041 0.092,0.134 0.113,0.211c0.355,1.288 0.098,2.488 -0.536,3.622c-0.772,1.375 -1.906,2.4 -3.224,3.229c-1.066,0.67 -2.236,1.149 -3.467,1.417c-0.772,0.175 -1.566,0.221 -2.354,0.139c-0.103,-0.057 -0.211,0.005 -0.309,-0.042Z" style="fill:#161f42;fill-rule:nonzero;"/><path d="M29.657,20.652c-0.067,-1.473 -0.433,-2.916 -1.072,-4.245c-0.417,-0.865 -0.942,-1.674 -1.566,-2.405c-0.561,-0.665 -1.205,-1.231 -1.885,-1.772c0.062,-0.062 0.144,-0.051 0.216,-0.041c0.948,0.108 1.875,0.329 2.772,0.659c0.221,0.083 0.437,0.18 0.644,0.299c0.072,0.036 0.144,0.077 0.216,0.124c0.015,0.01 0.026,0.036 0.051,0.03c-0.015,-0.02 -0.02,-0.046 -0.01,-0.072c-0.608,-0.793 -1.349,-1.457 -2.122,-2.086c-0.922,-0.747 -1.927,-1.385 -2.998,-1.9c-1.483,-0.732 -3.075,-1.211 -4.718,-1.412c-0.144,-0.02 -0.299,0 -0.438,-0.051c-0.01,-0.098 0.072,-0.129 0.129,-0.175c0.963,-0.804 1.736,-1.752 2.282,-2.88c0.164,-0.34 0.304,-0.695 0.417,-1.056c0.031,-0.103 0.051,-0.216 0.154,-0.278c1.726,0.829 3.271,1.983 4.559,3.4c3.42,3.76 4.708,8.988 3.43,13.907c-0.036,0.016 -0.041,-0.021 -0.061,-0.046Z" style="fill:#4189c9;fill-rule:nonzero;"/><path d="M23.821,28.806c-0,-0.15 0.118,-0.237 0.195,-0.346c0.706,-1.004 1.134,-2.117 1.355,-3.322c0.139,-0.747 0.149,-1.499 0.103,-2.246c-0.077,-1.148 -0.371,-2.256 -0.834,-3.317c-0.34,-0.778 -0.768,-1.514 -1.273,-2.194c-0.54,-0.716 -1.169,-1.37 -1.864,-1.937c-1.072,-0.886 -2.308,-1.55 -3.637,-1.962c-0.705,-0.227 -1.437,-0.376 -2.173,-0.448c-0.134,-0.011 -0.263,-0.047 -0.402,-0.036c-0.469,-0.346 -0.948,-0.68 -1.484,-0.922l0.005,-0.052c0.191,-0 0.387,0.005 0.577,-0c2.699,-0.046 5.192,0.613 7.366,2.256c2.251,1.705 3.662,3.956 4.188,6.737c0.448,2.37 0.103,4.611 -1.216,6.666c-0.257,0.417 -0.541,0.803 -0.906,1.123Z" style="fill:#161f42;fill-rule:nonzero;"/><path d="M21.74,3.391c-0.268,0.829 -0.608,1.623 -1.097,2.349c-0.49,0.731 -1.087,1.385 -1.772,1.942c-0.042,0.031 -0.078,0.067 -0.114,0.103c-0.237,0.118 -0.432,0.304 -0.649,0.448c-0.798,0.525 -1.653,0.968 -2.544,1.313c-0.021,0.006 -0.047,0.011 -0.067,0.016c-0.041,-0.057 0.005,-0.077 0.031,-0.103c0.505,-0.484 0.819,-1.077 1.03,-1.736c0.021,-0.088 0.082,-0.16 0.165,-0.185c1.571,-0.624 2.828,-1.654 3.853,-2.983c0.092,-0.118 0.185,-0.242 0.298,-0.396c-0.319,-0.006 -0.561,0.154 -0.829,0.195c-0.051,0.005 -0.118,0.047 -0.129,-0.051c0.974,-1.139 1.71,-2.467 2.153,-3.894c0.026,-0.093 0,-0.217 0.129,-0.263c0.01,0.005 0.016,0.015 0.01,0.026c0,0.01 -0.005,0.015 -0.005,0.015c-0.015,1.02 -0.159,2.035 -0.427,3.019c-0.016,0.056 -0.026,0.118 -0.036,0.185Z" style="fill:#161f42;fill-rule:nonzero;"/><path d="M15.631,14.136c0.319,0.35 0.597,0.742 0.829,1.159c0.021,0.041 0.077,0.087 0.026,0.134c-0.041,0.036 -0.083,-0.011 -0.124,-0.026c-1.045,-0.391 -2.122,-0.685 -3.224,-0.876c-0.557,-0.098 -1.118,-0.139 -1.679,-0.18c-0.505,-0.031 -1.015,-0.026 -1.52,0.021c-1.154,0.092 -2.277,0.34 -3.348,0.803c-0.33,0.144 -0.665,0.273 -0.974,0.464c-0.036,0.02 -0.077,0.056 -0.118,0.005c0.927,-0.654 1.957,-1.149 3.049,-1.463c1.504,-0.448 3.034,-0.556 4.595,-0.438c0.793,0.062 1.581,0.186 2.354,0.361c0.051,0.005 0.093,0.02 0.134,0.036Z" style="fill:#161f42;fill-rule:nonzero;"/><path d="M15.244,3.309l0.232,-0c0.124,0.051 0.263,-0.016 0.387,0.036l0.231,-0c0.021,0.113 -0.072,0.159 -0.134,0.211c-1.071,0.906 -2.132,1.818 -3.203,2.72c-0.356,0.298 -0.706,0.597 -1.056,0.896c-0.057,0.036 -0.098,0.087 -0.124,0.144c-0.464,0.175 -0.896,0.392 -1.236,0.768c-0.16,0.18 -0.268,0.386 -0.381,0.592c-0.32,0.206 -0.588,0.479 -0.876,0.721c-0.762,0.639 -1.514,1.293 -2.277,1.926c-0.062,0.052 -0.108,0.129 -0.18,0.17c-0.129,-0.195 -0.103,-0.412 -0.072,-0.623c0.098,-0.159 0.247,-0.257 0.381,-0.376c0.742,-0.628 1.478,-1.257 2.215,-1.885c0.721,-0.613 1.437,-1.226 2.158,-1.834c0.829,-0.7 1.654,-1.406 2.483,-2.112c0.458,-0.391 0.917,-0.788 1.385,-1.169c0.073,-0.046 0.119,-0.093 0.067,-0.185Z" style="fill:#5c94ce;fill-rule:nonzero;"/><path d="M28.802,13.204c-0.907,-0.438 -1.87,-0.711 -2.859,-0.871c-0.268,-0.041 -0.531,-0.098 -0.799,-0.098c-0.345,-0.216 -0.685,-0.448 -1.04,-0.654c-1.149,-0.664 -2.406,-1.118 -3.719,-1.329c-0.031,-0.01 -0.057,-0.021 -0.082,-0.031c0.391,-0.072 1.735,0.129 2.663,0.387c0.865,0.236 1.699,0.561 2.498,0.978c-0.083,-0.252 -0.237,-0.417 -0.33,-0.618c-0.01,-0.051 -0.082,-0.098 -0.036,-0.154c0.046,-0.057 0.108,0.005 0.155,0.025c0.134,0.062 0.262,0.134 0.396,0.196c1.123,0.582 2.184,1.283 3.163,2.086c0.051,0.067 0.051,0.067 -0.01,0.083Z" style="fill:#161f42;fill-rule:nonzero;"/><path d="M15.244,3.309c0.026,0.056 0.098,0.015 0.134,0.077c-0.216,0.185 -0.432,0.376 -0.649,0.561c-0.396,0.335 -0.793,0.67 -1.19,1.005c-0.561,0.474 -1.122,0.953 -1.689,1.427c-0.391,0.329 -0.773,0.669 -1.164,1.004c-0.474,0.402 -0.953,0.798 -1.422,1.2c-0.376,0.32 -0.747,0.644 -1.123,0.963l-1.586,1.34l0.113,-0.505c-0.062,-0.165 0.072,-0.237 0.16,-0.314c0.36,-0.299 0.716,-0.608 1.071,-0.912c0.835,-0.706 1.664,-1.417 2.498,-2.122c0.716,-0.608 1.432,-1.216 2.148,-1.824c0.665,-0.566 1.334,-1.128 1.994,-1.705c0.051,-0.046 0.149,-0.097 0.005,-0.154c0.232,-0.083 0.469,-0.021 0.7,-0.041Z" style="fill:#6497d0;fill-rule:nonzero;"/><path d="M14.549,3.35c0.052,0.01 0.113,-0.021 0.17,0.026c-0.134,0.201 -0.335,0.329 -0.515,0.484c-0.505,0.443 -1.02,0.875 -1.53,1.308c-0.469,0.397 -0.942,0.788 -1.411,1.185c-0.469,0.396 -0.938,0.809 -1.412,1.21c-0.473,0.402 -0.942,0.788 -1.411,1.185c-0.469,0.397 -0.937,0.804 -1.411,1.21c-0.139,0.124 -0.33,0.207 -0.366,0.418c-0.247,0.031 -0.381,0.237 -0.561,0.371c-0.289,0.206 -0.51,0.489 -0.773,0.721c-0.268,0.19 -0.505,0.417 -0.752,0.628c-0.742,0.629 -1.478,1.262 -2.22,1.885c-0.103,0.088 -0.196,0.191 -0.309,0.263c-0.052,0.031 -0.098,0.093 -0.17,0.041c-0.005,-0.134 0.02,-0.268 0.077,-0.386c0.371,-0.237 0.68,-0.551 1.015,-0.829c0.922,-0.773 1.834,-1.556 2.75,-2.334c0.917,-0.778 1.819,-1.55 2.73,-2.323c0.891,-0.757 1.783,-1.514 2.674,-2.271c0.911,-0.773 1.823,-1.546 2.73,-2.323c0.18,-0.155 0.371,-0.299 0.541,-0.464l0.154,-0.005Z" style="fill:#689ad1;fill-rule:nonzero;"/><path d="M16.558,3.386c0.211,-0.005 0.412,0.051 0.618,0.077c0.057,0.124 -0.052,0.17 -0.113,0.227c-0.258,0.226 -0.526,0.438 -0.778,0.669c-0.026,-0.036 -0.057,-0.072 -0.083,-0.108c-0.056,-0.082 -0.097,-0.062 -0.133,0.016c-0.304,0.654 -0.825,1.107 -1.396,1.509c-0.639,0.448 -1.329,0.824 -2.056,1.123c-0.041,-0.072 -0.041,-0.077 0.026,-0.144c0.139,-0.145 0.299,-0.263 0.448,-0.392c1.097,-0.932 2.195,-1.859 3.287,-2.802c0.061,-0.051 0.118,-0.113 0.18,-0.175Z" style="fill:#4e8fcc;fill-rule:nonzero;"/><path d="M16.558,3.386c-0.005,0.062 -0.041,0.124 -0.093,0.16c-0.705,0.597 -1.411,1.2 -2.117,1.797c-0.541,0.459 -1.076,0.922 -1.617,1.386c-0.047,0.041 -0.139,0.072 -0.114,0.17c-0.339,0.16 -0.69,0.304 -1.045,0.422c-0.119,-0.031 -0.021,-0.077 -0,-0.098c0.211,-0.185 0.422,-0.37 0.639,-0.551c0.391,-0.335 0.788,-0.669 1.184,-1.004c0.392,-0.33 0.783,-0.66 1.17,-0.989c0.386,-0.33 0.777,-0.665 1.164,-0.999c0.123,-0.109 0.278,-0.191 0.36,-0.34c0.16,-0.011 0.314,0.041 0.469,0.046Z" style="fill:#5591cd;fill-rule:nonzero;"/><path d="M13.818,8.032c0.407,-0.201 0.834,-0.371 1.189,-0.664c0.073,-0.006 0.067,0.041 0.047,0.087c-0.33,1.36 -1.36,2.256 -2.756,2.385c-0.268,0.026 -0.536,0.057 -0.809,0.031c0.036,-0.098 0.129,-0.093 0.206,-0.113c0.304,-0.083 0.603,-0.17 0.886,-0.315c0.526,-0.273 0.912,-0.674 1.134,-1.226c0.015,-0.072 0.051,-0.139 0.103,-0.185Z" style="fill:#161f42;fill-rule:nonzero;"/><path d="M13.818,8.032c-0.17,0.649 -0.582,1.097 -1.154,1.422c-0.366,0.206 -0.773,0.304 -1.175,0.417c-0.097,-0.289 0.011,-0.531 0.181,-0.752c0.201,-0.258 0.479,-0.417 0.772,-0.551c0.448,-0.206 0.907,-0.381 1.376,-0.536Z" style="fill:#418ac9;fill-rule:nonzero;"/><path d="M1.878,14.28c0.226,-0.082 0.376,-0.278 0.556,-0.427c0.582,-0.479 1.154,-0.969 1.726,-1.453c0.304,-0.258 0.597,-0.515 0.896,-0.778c0.082,-0.072 0.154,-0.149 0.273,-0.159c-0.309,0.386 -0.603,0.782 -0.824,1.231c-0.593,0.499 -1.185,1.004 -1.772,1.509c-0.273,0.232 -0.551,0.458 -0.819,0.7c-0.041,0.036 -0.088,0.083 -0.149,0.031c0.01,-0.216 0.046,-0.438 0.113,-0.654Z" style="fill:#6497d0;fill-rule:nonzero;"/><path d="M4.144,15.321c-0.18,0.015 -0.262,0.175 -0.386,0.273c-0.51,0.412 -0.999,0.834 -1.494,1.262c-0.165,0.144 -0.324,0.288 -0.499,0.422c-0.114,0.087 -0.16,0.051 -0.155,-0.083l0,-0.484c0.18,-0.195 0.391,-0.345 0.592,-0.515c0.577,-0.489 1.144,-0.984 1.731,-1.463c0.052,-0.041 0.093,-0.118 0.18,-0.067l0.031,0.655Z" style="fill:#468cca;fill-rule:nonzero;"/><path d="M6.627,11.504c0.005,-0.067 0.041,-0.124 0.098,-0.16c0.463,-0.391 0.927,-0.783 1.391,-1.174c0.381,-0.32 0.757,-0.649 1.138,-0.974c0.201,-0.17 0.397,-0.345 0.592,-0.515c0.036,-0.031 0.072,-0.057 0.108,0c-0.041,0.175 -0.092,0.35 -0.087,0.536c-0.206,0.226 -0.459,0.407 -0.69,0.608c-0.721,0.618 -1.443,1.231 -2.164,1.844c-0.031,0.025 -0.051,0.056 -0.077,0.087c-0.139,-0.026 -0.258,-0.118 -0.309,-0.252Z" style="fill:#5591cd;fill-rule:nonzero;"/><path d="M1.759,14.939c0.165,-0.051 0.263,-0.195 0.392,-0.298c0.68,-0.562 1.344,-1.134 2.019,-1.705c0.108,-0.088 0.18,-0.222 0.34,-0.237c-0.124,0.304 -0.227,0.613 -0.309,0.927c-0.119,-0.01 -0.18,0.082 -0.258,0.149c-0.7,0.603 -1.406,1.195 -2.106,1.793c-0.042,0.036 -0.083,0.087 -0.15,0.067c-0.01,-0.237 0.016,-0.469 0.072,-0.696Z" style="fill:#5c94ce;fill-rule:nonzero;"/><path d="M6.936,11.756c-0.046,-0.087 0.031,-0.113 0.077,-0.149c0.593,-0.505 1.185,-1.01 1.777,-1.509c0.335,-0.284 0.67,-0.567 1.01,-0.85c0.021,-0.011 0.046,-0.021 0.072,-0.026c0,0.16 0.026,0.314 0.072,0.463c-0.201,0.237 -0.458,0.413 -0.69,0.613c-0.52,0.449 -1.041,0.892 -1.571,1.335c-0.036,0.025 -0.067,0.061 -0.077,0.103c-0.222,0.082 -0.443,0.113 -0.67,0.02Z" style="fill:#4e8fcc;fill-rule:nonzero;"/><path d="M4.103,14.672c-0.216,0.123 -0.391,0.303 -0.582,0.463c-0.505,0.412 -0.999,0.835 -1.489,1.262c-0.134,0.119 -0.257,0.247 -0.427,0.325c0.02,-0.206 -0.041,-0.418 0.036,-0.618c0.762,-0.65 1.525,-1.299 2.292,-1.948c0.052,-0.046 0.108,-0.097 0.185,-0.061l-0.015,0.577Z" style="fill:#4e8fcc;fill-rule:nonzero;"/><path d="M4.124,14.09c-0.248,0.128 -0.433,0.334 -0.644,0.509c-0.5,0.413 -0.984,0.835 -1.479,1.247c-0.108,0.093 -0.185,0.237 -0.35,0.252c0.021,-0.154 -0.041,-0.314 0.041,-0.463c0.479,-0.412 0.964,-0.824 1.448,-1.231c0.324,-0.278 0.654,-0.551 0.984,-0.83c0.103,-0.087 0.077,0.011 0.082,0.057c-0.036,0.149 -0.057,0.304 -0.082,0.459Z" style="fill:#5591cd;fill-rule:nonzero;"/><path d="M7.606,11.741c-0.072,-0.052 -0.021,-0.088 0.015,-0.124c0.453,-0.381 0.912,-0.762 1.365,-1.143c0.283,-0.237 0.562,-0.479 0.845,-0.722c0.031,-0.036 0.067,-0.056 0.113,-0.067l0.113,0.232c-0.087,0.139 -0.231,0.222 -0.334,0.351c-0.557,0.618 -1.185,1.138 -1.973,1.437c-0.046,0.015 -0.093,0.025 -0.144,0.036Z" style="fill:#488dca;fill-rule:nonzero;"/><path d="M16.285,4.365c0.072,-0.217 0.299,-0.284 0.433,-0.438c0.144,-0.165 0.376,-0.237 0.463,-0.464c0.17,0 0.33,0.047 0.489,0.072c0.14,0.026 0.15,0.088 0.052,0.175c-0.211,0.186 -0.422,0.376 -0.634,0.557c-0.2,0.17 -0.401,0.34 -0.602,0.51c-0.072,-0.139 -0.139,-0.278 -0.201,-0.412Z" style="fill:#468cca;fill-rule:nonzero;"/><path d="M6.745,13.173c0.037,0.087 -0.067,0.128 -0.056,0.206c-0.052,-0.237 -0.18,-0.325 -0.417,-0.278c-0.253,0.056 -0.479,0.185 -0.649,0.381c-0.047,0.051 -0.103,0.098 -0.155,0.144c-0.041,-0.052 0,-0.098 0.015,-0.144c0.103,-0.335 0.33,-0.572 0.613,-0.763c0.062,-0.046 0.134,-0.077 0.212,-0.097c0.329,-0.078 0.51,0.082 0.463,0.417c0.005,0.046 -0.005,0.092 -0.026,0.134Z" style="fill:#428ac9;fill-rule:nonzero;"/><path d="M6.745,13.173c0,-0.052 0.006,-0.103 0.006,-0.155c0.005,-0.335 -0.186,-0.463 -0.5,-0.319c-0.361,0.165 -0.587,0.458 -0.747,0.814c-0.036,0.005 -0.057,-0.006 -0.046,-0.047c0.113,-0.422 0.335,-0.767 0.7,-1.014c0.093,-0.062 0.196,-0.098 0.299,-0.119c0.17,-0.036 0.34,0.067 0.381,0.237c0.057,0.201 0.026,0.422 -0.093,0.603Z" style="fill:#182144;fill-rule:nonzero;"/><path d="M9.723,10.268c-0.067,-0.052 -0.005,-0.073 0.025,-0.098c0.109,-0.078 0.17,-0.212 0.304,-0.253c0.175,0.278 0.454,0.402 0.747,0.505c0.057,0.021 0.119,0.036 0.217,0.062c-0.449,0.118 -0.835,0.072 -1.19,-0.17c-0.026,-0.031 -0.062,-0.046 -0.103,-0.046Z" style="fill:#458cca;fill-rule:nonzero;"/><path d="M25.644,11.03c-0.144,-0.016 -0.247,-0.113 -0.376,-0.16c-0.051,-0.02 -0.098,-0.082 -0.149,-0.041c-0.042,0.036 0.025,0.088 0.01,0.139c-0.077,-0.067 -0.108,-0.17 -0.149,-0.268c0.231,0.093 0.458,0.186 0.664,0.33Z" style="fill:#63657d;fill-rule:nonzero;"/><path d="M28.802,13.204c0.041,-0.026 -0,-0.057 0.005,-0.088l0.221,0.124l0.119,0.154c-0.145,-0.041 -0.242,-0.123 -0.345,-0.19Z" style="fill:#263154;fill-rule:nonzero;"/><path d="M19.927,10.154c0.103,-0.015 0.211,-0.005 0.309,0.021c-0.124,0.072 -0.206,0.062 -0.309,-0.021Z" style="fill:#a09aa9;fill-rule:nonzero;"/><path d="M5.123,28.033c0.118,0.021 0.175,0.139 0.273,0.191l-0.005,0.046c-0.108,-0.052 -0.201,-0.134 -0.268,-0.237Z" style="fill:#424a7f;fill-rule:nonzero;"/><path d="M29.657,20.652l0.067,0.041c0.01,0.077 -0.026,0.144 -0.067,0.237l-0,-0.278Z" style="fill:#8cb7de;fill-rule:nonzero;"/><path d="M19.916,4.313c0.026,0.057 0.088,0.036 0.129,0.052l-0.206,0.082c-0.015,-0.088 0.036,-0.108 0.077,-0.134Z" style="fill:#5a5d76;fill-rule:nonzero;"/><path d="M5.463,13.466l0.046,0.047c-0.01,0.036 -0.026,0.077 -0.036,0.113l-0.082,0.108c0.02,-0.129 0.026,-0.206 0.072,-0.268Z" style="fill:#4f668a;fill-rule:nonzero;"/><path d="M15.054,7.45c-0.01,-0.031 -0.005,-0.072 -0.047,-0.088c0.011,-0.03 0.047,-0.072 0.062,-0.056c0.047,0.046 0.026,0.098 -0.015,0.144Z" style="fill:#555a73;fill-rule:nonzero;"/><path d="M2.032,13.585c0.052,-0.278 0.109,-0.557 0.232,-0.814c0.453,-0.319 0.855,-0.701 1.278,-1.056c0.731,-0.618 1.462,-1.236 2.189,-1.86c0.664,-0.566 1.329,-1.133 1.998,-1.699c0.721,-0.613 1.443,-1.226 2.164,-1.839c0.654,-0.556 1.313,-1.113 1.967,-1.674c0.459,-0.392 0.927,-0.778 1.376,-1.18c0.242,-0.056 0.484,-0.087 0.731,-0.077c0.021,-0.021 0.052,-0.021 0.077,-0.01c0.057,0.092 -0.015,0.144 -0.072,0.195c-0.623,0.526 -1.241,1.056 -1.864,1.587c-0.665,0.561 -1.324,1.123 -1.989,1.689c-0.613,0.521 -1.22,1.041 -1.833,1.561c-0.742,0.634 -1.489,1.262 -2.236,1.896c-0.927,0.783 -1.849,1.576 -2.776,2.359c-0.361,0.304 -0.711,0.613 -1.077,0.906c-0.031,0.036 -0.093,0.155 -0.165,0.016Z" style="fill:#6d9cd2;fill-rule:nonzero;"/><path d="M13.236,3.463c-0.067,0.217 -0.273,0.299 -0.423,0.433c-0.489,0.433 -0.994,0.85 -1.488,1.272c-0.557,0.469 -1.118,0.938 -1.674,1.412c-0.485,0.412 -0.959,0.829 -1.443,1.241c-0.468,0.396 -0.942,0.788 -1.411,1.19c-0.469,0.401 -0.932,0.803 -1.401,1.2c-0.469,0.397 -0.938,0.793 -1.411,1.19c-0.387,0.329 -0.768,0.659 -1.154,0.989c-0.155,0.134 -0.314,0.262 -0.474,0.391c-0.036,0.026 -0.067,0.041 -0.098,0c0.057,-0.268 0.144,-0.53 0.268,-0.772c0.355,-0.227 0.654,-0.521 0.973,-0.789c0.732,-0.618 1.463,-1.236 2.19,-1.859c0.752,-0.644 1.509,-1.288 2.261,-1.926c0.623,-0.531 1.246,-1.056 1.864,-1.587c0.809,-0.685 1.613,-1.38 2.426,-2.06c0.062,-0.041 0.109,-0.098 0.134,-0.16c0.284,-0.113 0.577,-0.108 0.861,-0.165Z" style="fill:#729fd4;fill-rule:nonzero;"/><path d="M12.386,3.618c0.118,0.031 0.02,0.077 -0,0.098c-0.217,0.195 -0.438,0.391 -0.665,0.582c-0.391,0.329 -0.783,0.659 -1.174,0.989c-0.572,0.479 -1.144,0.963 -1.715,1.447c-0.469,0.397 -0.933,0.804 -1.401,1.2c-0.485,0.412 -0.969,0.819 -1.453,1.226c-0.469,0.397 -0.932,0.798 -1.401,1.2c-0.469,0.397 -0.938,0.793 -1.406,1.19c-0.17,0.144 -0.34,0.289 -0.515,0.433c-0.036,0.026 -0.072,0.093 -0.124,0.02c0.052,-0.262 0.191,-0.494 0.309,-0.731c0.634,-0.541 1.272,-1.082 1.911,-1.628c0.654,-0.561 1.314,-1.117 1.968,-1.674c0.628,-0.535 1.251,-1.066 1.88,-1.597c0.659,-0.561 1.324,-1.128 1.983,-1.689c0.34,-0.288 0.675,-0.592 1.03,-0.876c0.242,-0.113 0.51,-0.144 0.773,-0.19Z" style="fill:#78a2d5;fill-rule:nonzero;"/><path d="M11.613,3.808c-0.247,0.32 -0.577,0.541 -0.876,0.804c-0.391,0.34 -0.788,0.675 -1.184,1.009c-0.387,0.325 -0.773,0.649 -1.159,0.979c-0.387,0.33 -0.768,0.659 -1.154,0.984c-0.386,0.33 -0.783,0.659 -1.174,0.989c-0.382,0.324 -0.758,0.649 -1.139,0.973c-0.484,0.412 -0.968,0.819 -1.452,1.226c-0.17,0.145 -0.345,0.289 -0.515,0.433c-0.031,0.031 -0.073,0.052 -0.119,0.057c0.124,-0.325 0.278,-0.634 0.464,-0.927c0.88,-0.716 1.741,-1.463 2.606,-2.2c1.004,-0.855 2.009,-1.7 3.008,-2.56c0.562,-0.484 1.149,-0.948 1.695,-1.458c0.319,-0.128 0.654,-0.231 0.999,-0.309Z" style="fill:#7da5d6;fill-rule:nonzero;"/><path d="M10.609,4.123c0.041,0.066 -0.031,0.087 -0.062,0.118c-0.428,0.376 -0.86,0.747 -1.293,1.118c-0.381,0.324 -0.762,0.644 -1.144,0.968c-0.473,0.402 -0.947,0.804 -1.421,1.2c-0.387,0.33 -0.768,0.66 -1.154,0.984c-0.484,0.412 -0.968,0.819 -1.447,1.226c-0.201,0.17 -0.402,0.345 -0.598,0.515c-0.051,0.052 -0.118,0.083 -0.185,0.093c0.237,-0.479 0.525,-0.933 0.85,-1.35c0.298,-0.221 0.571,-0.474 0.855,-0.711c0.736,-0.623 1.468,-1.246 2.199,-1.869c0.567,-0.485 1.133,-0.969 1.7,-1.448c0.087,-0.072 0.196,-0.123 0.263,-0.221c0.453,-0.284 0.947,-0.448 1.437,-0.623Z" style="fill:#81a7d8;fill-rule:nonzero;"/><path d="M18.757,21.352c-0.386,0.32 -0.772,0.644 -1.287,0.866c0.149,-0.299 0.262,-0.613 0.34,-0.938c0.303,-1.339 0.02,-2.56 -0.768,-3.667c-0.196,-0.273 -0.458,-0.484 -0.69,-0.727c-0.036,-0.041 -0.077,-0.087 -0.144,-0.056c-0.072,-0.036 -0.103,-0.103 -0.155,-0.155c0.031,-0.041 0.067,-0.02 0.103,0c0.932,0.531 1.71,1.216 2.189,2.2c0.232,0.484 0.376,1.009 0.423,1.545c0.031,0.309 0.025,0.623 -0.011,0.932Z" style="fill:#0e1f66;fill-rule:nonzero;"/><path d="M2.032,13.585c0.155,0.056 0.206,-0.098 0.284,-0.16c0.783,-0.649 1.555,-1.308 2.328,-1.973c0.731,-0.623 1.452,-1.251 2.184,-1.875c0.814,-0.69 1.633,-1.375 2.452,-2.065c0.731,-0.623 1.457,-1.252 2.189,-1.875c0.788,-0.67 1.576,-1.344 2.369,-2.019c0.083,-0.067 0.196,-0.103 0.211,-0.232c0.047,-0.041 0.109,0.005 0.155,-0.036l0.196,-0c-0.057,0.206 -0.258,0.278 -0.397,0.402c-0.402,0.36 -0.819,0.7 -1.226,1.045c-0.469,0.397 -0.942,0.794 -1.411,1.19c-0.381,0.325 -0.757,0.649 -1.139,0.974c-0.561,0.474 -1.128,0.947 -1.684,1.426c-0.381,0.325 -0.757,0.649 -1.138,0.974c-0.484,0.412 -0.969,0.819 -1.453,1.226c-0.381,0.324 -0.757,0.649 -1.138,0.973c-0.392,0.33 -0.783,0.66 -1.175,0.989c-0.391,0.33 -0.777,0.67 -1.169,1c-0.134,0.113 -0.278,0.226 -0.417,0.34c-0.031,0.025 -0.062,0.046 -0.098,-0c0,-0.098 0.026,-0.206 0.077,-0.304Z" style="fill:#699ad1;fill-rule:nonzero;"/><path d="M9.177,4.735c-0.031,0.186 -0.212,0.232 -0.325,0.335c-0.396,0.356 -0.803,0.691 -1.21,1.036c-0.474,0.401 -0.948,0.798 -1.422,1.2c-0.381,0.324 -0.757,0.649 -1.138,0.973c-0.278,0.237 -0.551,0.474 -0.83,0.711c-0.03,0.026 -0.061,0.046 -0.097,0c0.2,-0.309 0.427,-0.603 0.674,-0.881c0.907,-1.056 1.942,-1.972 3.127,-2.709c0.397,-0.242 0.788,-0.495 1.221,-0.665Z" style="fill:#88abd9;fill-rule:nonzero;"/><path d="M15.863,3.35c-0.129,-0.016 -0.263,0.041 -0.387,-0.036c0.129,0.015 0.263,-0.041 0.387,0.036Z" style="fill:#5591cd;fill-rule:nonzero;"/><path d="M14.199,3.35c-0.041,0.057 -0.103,0.031 -0.155,0.036l-0.077,-0c0.072,-0.067 0.155,-0.026 0.232,-0.036Z" style="fill:#689ad1;fill-rule:nonzero;"/><path d="M10.49,30.238c1.262,0.056 2.519,-0.145 3.698,-0.582c1.149,-0.418 2.221,-1.02 3.173,-1.788c0.933,-0.757 1.736,-1.622 2.272,-2.709c0.288,-0.582 0.469,-1.211 0.525,-1.855c0.052,-0.582 -0.046,-1.133 -0.206,-1.679c0.016,-0.134 0.139,-0.195 0.212,-0.288c0.278,-0.366 0.479,-0.757 0.566,-1.211c0.016,-0.061 0.036,-0.118 0.062,-0.175c0.175,0.35 0.314,0.716 0.412,1.092c0.134,0.531 0.211,1.072 0.17,1.618c-0.072,0.947 -0.355,1.869 -0.829,2.694c-0.474,0.834 -1.082,1.545 -1.783,2.183c-0.618,0.552 -1.298,1.031 -2.029,1.417c-0.881,0.479 -1.818,0.834 -2.797,1.066c-0.608,0.144 -1.231,0.232 -1.854,0.268c-0.304,0.016 -0.603,0.041 -0.902,0.026c-0.221,-0.021 -0.458,-0.005 -0.69,-0.077Z" style="fill:#0e1f66;fill-rule:nonzero;"/></g></g></svg>
