<?xml version="1.0" encoding="UTF-8" standalone="no"?><!DOCTYPE svg PUBLIC "-//W3C//DTD SVG 1.1//EN" "http://www.w3.org/Graphics/SVG/1.1/DTD/svg11.dtd"><svg width="100%" height="100%" viewBox="0 0 2500 2500" version="1.1" xmlns="http://www.w3.org/2000/svg" xmlns:xlink="http://www.w3.org/1999/xlink" xml:space="preserve" xmlns:serif="http://www.serif.com/" style="fill-rule:evenodd;clip-rule:evenodd;stroke-linejoin:round;stroke-miterlimit:2;"><g><path d="M1250,605.383c332.801,0 602.617,269.816 602.617,602.617c-0,332.801 -269.828,602.617 -602.617,602.617c-332.789,-0 -602.617,-269.744 -602.617,-602.617c0,-332.873 269.78,-602.617 602.617,-602.617" style="fill:#53ae94;fill-rule:nonzero;"/><path d="M1324.38,1127.71l-0,-89.645l204.998,0l0,-136.589l-558.216,0l0,136.589l205.022,0l0,89.573c-166.623,7.653 -291.907,40.653 -291.907,80.184c-0,39.532 125.344,72.531 291.907,80.233l0,287.146l148.244,0l0,-287.171c166.322,-7.677 291.353,-40.652 291.353,-80.148c0,-39.495 -125.031,-72.47 -291.353,-80.148m0,135.975l0,-0.072c-4.182,0.265 -25.671,1.554 -73.519,1.554c-38.254,0 -65.167,-1.084 -74.652,-1.579l-0,0.121c-147.207,-6.52 -257.089,-32.156 -257.089,-62.829c0,-30.673 109.894,-56.272 257.089,-62.805l-0,100.095c9.642,0.663 37.217,2.29 75.279,2.29c45.714,0 68.698,-1.904 72.916,-2.29l0,-100.095c146.918,6.545 256.546,32.204 256.546,62.769c0,30.565 -109.676,56.236 -256.546,62.781" style="fill:#fff;fill-rule:nonzero;"/></g></svg>