<?xml version="1.0" encoding="UTF-8" standalone="no"?><!DOCTYPE svg PUBLIC "-//W3C//DTD SVG 1.1//EN" "http://www.w3.org/Graphics/SVG/1.1/DTD/svg11.dtd"><svg width="100%" height="100%" viewBox="0 0 2500 2500" version="1.1" xmlns="http://www.w3.org/2000/svg" xmlns:xlink="http://www.w3.org/1999/xlink" xml:space="preserve" xmlns:serif="http://www.serif.com/" style="fill-rule:evenodd;clip-rule:evenodd;stroke-linejoin:round;stroke-miterlimit:2;"><path d="M1250,1810.62c333.952,-0 602.617,-268.665 602.617,-602.617c-0,-333.952 -268.665,-602.617 -602.617,-602.617c-333.952,0 -602.617,268.665 -602.617,602.617c0,333.952 268.665,602.617 602.617,602.617Z" style="fill:#2775ca;fill-rule:nonzero;"/><path d="M1415.72,1303.41c-0,-87.879 -52.729,-118.01 -158.187,-130.563c-75.327,-10.045 -90.393,-30.13 -90.393,-65.287c0,-35.157 25.111,-57.749 75.327,-57.749c45.197,0 70.308,15.066 82.86,52.729c2.513,7.533 10.046,12.553 17.578,12.553l40.171,-0c10.045,-0 17.578,-7.533 17.578,-17.573l0,-2.513c-10.045,-55.241 -55.242,-97.925 -112.99,-102.945l-0,-60.261c-0,-10.046 -7.533,-17.579 -20.086,-20.092l-37.663,0c-10.046,0 -17.579,7.533 -20.091,20.092l-0,57.748c-75.328,10.046 -123.031,60.262 -123.031,123.037c0,82.859 50.216,115.497 155.674,128.056c70.308,12.552 92.906,27.618 92.906,67.794c-0,40.177 -35.157,67.794 -82.86,67.794c-65.288,0 -87.886,-27.623 -95.418,-65.287c-2.507,-10.04 -10.04,-15.065 -17.573,-15.065l-42.689,-0c-10.04,-0 -17.572,7.532 -17.572,17.578l-0,2.513c10.039,62.768 50.216,107.965 133.075,120.523l0,60.262c0,10.039 7.533,17.572 20.086,20.085l37.663,0c10.046,0 17.579,-7.533 20.091,-20.085l0,-60.262c75.328,-12.558 125.544,-65.287 125.544,-133.082Z" style="fill:#fff;fill-rule:nonzero;"/><path d="M1121.94,1567.06c-195.85,-70.301 -296.289,-288.75 -223.468,-482.093c37.663,-105.458 120.523,-185.805 223.468,-223.469c10.046,-5.019 15.065,-12.552 15.065,-25.111l0,-35.15c0,-10.046 -5.019,-17.579 -15.065,-20.085c-2.513,-0 -7.533,-0 -10.046,2.506c-238.533,75.328 -369.102,328.933 -293.775,567.466c45.196,140.609 153.167,248.58 293.775,293.776c10.046,5.02 20.092,0 22.598,-10.046c2.513,-2.506 2.513,-5.019 2.513,-10.039l0,-35.157c0,-7.533 -7.532,-17.572 -15.065,-22.598Zm266.158,-783.402c-10.046,-5.019 -20.092,0 -22.598,10.046c-2.513,2.513 -2.513,5.02 -2.513,10.046l-0,35.15c-0,10.046 7.532,20.086 15.065,25.111c195.85,70.302 296.289,288.75 223.468,482.094c-37.663,105.458 -120.523,185.804 -223.468,223.468c-10.046,5.02 -15.065,12.552 -15.065,25.111l-0,35.151c-0,10.045 5.019,17.578 15.065,20.085c2.513,-0 7.533,-0 10.046,-2.507c238.533,-75.327 369.102,-328.932 293.775,-567.466c-45.196,-143.121 -155.68,-251.092 -293.775,-296.289Z" style="fill:#fff;fill-rule:nonzero;"/></svg>