<svg clip-rule="evenodd" fill-rule="evenodd" stroke-linejoin="round" stroke-miterlimit="2" viewBox="0 0 560 400" xmlns="http://www.w3.org/2000/svg"><g fill="#ffbe40" fill-rule="nonzero"><path d="m.006 0h-36.506l12.657 14.892h75.562v-14.892h-31.484v-68.573h-20.229zm-88.615-26.415-31.198 41.308h24.787l18.661-27.518 20.232 27.518h24.501l-32.196-41.308 32.196-42.157h-23.79l-20.943 28.652-20.512-28.652h-24.076zm338.436 40.269h79.466c5.541.188 11.081-.362 16.476-1.638 3.641-1.035 6.935-3.037 9.53-5.793 5.019-6.137 7.555-13.934 7.106-21.85v-51.32h-21.642v47.825c.079 2.716-.083 5.435-.485 8.123-.333 1.568-1.119 3.002-2.26 4.125-2.812 2.424-6.475 3.627-10.176 3.338h-11.47v-63.41h-21.643v63.41h-23.26v-63.41h-21.642zm-57.496-15.711c-13.03 0-19.546-8.28-19.546-24.841-.319-5.328.797-10.644 3.231-15.395 3.361-5.854 9.735-9.314 16.475-8.942 12.804 0 19.205 8.228 19.205 24.684.009 16.088-6.447 24.253-19.365 24.494m-.164 16.876c14.537 0 25.251-4.303 32.142-12.909 6.561-8.448 9.935-18.937 9.53-29.626.52-11.295-3.837-22.269-11.964-30.131-7.325-6.832-17.339-10.253-30.042-10.264-13.142 0-23.427 3.863-30.854 11.586-6.893 6.958-10.339 17.117-10.339 30.477-.346 10.274 3.17 20.305 9.854 28.115 7.331 8.407 17.889 12.657 31.673 12.752m-52.814-1.165v-17.19h-25.846c-8.722 0-14.75-2.015-18.088-5.982-3.231-3.747-4.846-9.487-4.846-17.223 0-8.605 2.638-14.892 7.912-18.858 2.109-1.522 4.497-2.613 7.028-3.212 3.479-.708 7.029-1.014 10.579-.913h23.261v-17.222h-29.561c-6.392-.227-12.776.614-18.891 2.488-4.777 1.737-9.011 4.702-12.279 8.595-6.961 8.204-10.592 18.719-10.176 29.469 0 14.358 4.038 25.062 12.116 32.114 3.344 2.927 7.327 5.029 11.629 6.14 5.77 1.332 11.684 1.935 17.604 1.794h29.56zm-104.475-67.66c.115 4.682 4.004 8.387 8.687 8.271 4.683-.114 8.386-4.004 8.272-8.687-.113-4.601-3.875-8.272-8.477-8.274-4.739.064-8.533 3.952-8.482 8.69" transform="matrix(.571717 0 0 -.571717 265.732205548 186.103549881)"/><path d="m0 0c.115 4.683 4.004 8.387 8.688 8.271 4.682-.114 8.385-4.003 8.271-8.687-.113-4.601-3.875-8.272-8.477-8.273-4.739.063-8.533 3.951-8.482 8.689" transform="matrix(.571717 0 0 -.571717 285.672551074 216.865354783)"/><path d="m0 0c-1.32-.01-2.569-.596-3.419-1.605l-25.502-31.296-11.574-14.167-15.081-18.451c-1.6-1.888-1.366-4.715.522-6.316 1.889-1.6 4.717-1.365 6.316.522l14.03 17.096 14.026-17.096c.835-1.029 2.096-1.621 3.422-1.605h11.552c2.486.016 4.49 2.043 4.475 4.53-.007 1.05-.38 2.066-1.056 2.869l-20.865 25.471 26.655 32.65c1.567 1.973 1.238 4.842-.735 6.41-.79.628-1.766.975-2.775.989m-34.97-25.849 15.081 18.45c1.583 1.94 1.294 4.795-.646 6.379-.785.64-1.761.999-2.773 1.02-1.321-.007-2.571-.594-3.419-1.606l-14.03-17.127-14.029 17.127c-.834 1.031-2.094 1.622-3.419 1.606h-11.574c-2.49-.022-4.49-2.059-4.467-4.549.009-1.043.38-2.05 1.048-2.85l20.868-25.503-26.655-32.618c-1.637-1.857-1.459-4.69.398-6.328 1.857-1.637 4.69-1.459 6.328.398.039.045.078.091.116.136l25.6 31.264zm-2.809 56.231c-37.02.267-67.248-29.526-67.516-66.547-.267-37.02 29.527-67.248 66.547-67.516 37.02-.267 67.248 29.527 67.516 66.547.001.161.002.324.002.486.087 36.868-29.681 66.852-66.549 67.03m0-145.74c-43.469-.328-78.973 34.647-79.299 78.116-.328 43.469 34.647 78.973 78.116 79.3 43.469.326 78.973-34.647 79.3-78.117.002-.196.002-.392.002-.589.11-43.286-34.833-78.494-78.119-78.71" transform="matrix(.571717 0 0 -.571717 153.98783103 179.047418667)"/></g></svg>